<mxfile host="app.diagrams.net" modified="2021-12-10T06:14:07.436Z" agent="5.0 (Macintosh; Intel Mac OS X 10_15_7) AppleWebKit/537.36 (KHTML, like Gecko) Chrome/96.0.4664.55 Safari/537.36" etag="rBU8MbxMq2xBnITYJwA_" version="15.9.4" type="github">
  <diagram name="Page-1" id="b520641d-4fe3-3701-9064-5fc419738815">
    <mxGraphModel dx="1426" dy="794" grid="1" gridSize="10" guides="1" tooltips="1" connect="1" arrows="1" fold="1" page="1" pageScale="1" pageWidth="1100" pageHeight="850" background="none" math="0" shadow="0">
      <root>
        <mxCell id="0" />
        <mxCell id="1" parent="0" />
        <mxCell id="ZViHw2USpMIrhBvI2TIL-1" value="" style="endArrow=none;html=1;rounded=0;strokeWidth=2;endFill=0;" edge="1" parent="1">
          <mxGeometry relative="1" as="geometry">
            <mxPoint x="390" y="170" as="sourcePoint" />
            <mxPoint x="760" y="170" as="targetPoint" />
          </mxGeometry>
        </mxCell>
        <mxCell id="ZViHw2USpMIrhBvI2TIL-3" value="&lt;font style=&quot;font-size: 16px&quot;&gt;&lt;b&gt;P0&lt;/b&gt;&lt;/font&gt;" style="text;html=1;align=center;verticalAlign=middle;resizable=0;points=[];autosize=1;strokeColor=none;fillColor=none;" vertex="1" parent="1">
          <mxGeometry x="340" y="160" width="40" height="20" as="geometry" />
        </mxCell>
        <mxCell id="ZViHw2USpMIrhBvI2TIL-4" value="" style="endArrow=none;html=1;rounded=0;strokeWidth=2;endFill=0;" edge="1" parent="1">
          <mxGeometry relative="1" as="geometry">
            <mxPoint x="389" y="246" as="sourcePoint" />
            <mxPoint x="760" y="246" as="targetPoint" />
          </mxGeometry>
        </mxCell>
        <mxCell id="ZViHw2USpMIrhBvI2TIL-15" value="e" style="edgeLabel;html=1;align=center;verticalAlign=middle;resizable=0;points=[];fontSize=16;" vertex="1" connectable="0" parent="ZViHw2USpMIrhBvI2TIL-4">
          <mxGeometry x="0.2668" y="3" relative="1" as="geometry">
            <mxPoint y="-13" as="offset" />
          </mxGeometry>
        </mxCell>
        <mxCell id="ZViHw2USpMIrhBvI2TIL-5" value="&lt;font style=&quot;font-size: 16px&quot;&gt;&lt;b&gt;P1&lt;/b&gt;&lt;/font&gt;" style="text;html=1;align=center;verticalAlign=middle;resizable=0;points=[];autosize=1;strokeColor=none;fillColor=none;" vertex="1" parent="1">
          <mxGeometry x="339" y="236" width="40" height="20" as="geometry" />
        </mxCell>
        <mxCell id="ZViHw2USpMIrhBvI2TIL-6" value="" style="endArrow=none;html=1;rounded=0;strokeWidth=2;endFill=0;" edge="1" parent="1">
          <mxGeometry relative="1" as="geometry">
            <mxPoint x="389" y="316" as="sourcePoint" />
            <mxPoint x="760" y="316" as="targetPoint" />
          </mxGeometry>
        </mxCell>
        <mxCell id="ZViHw2USpMIrhBvI2TIL-7" value="&lt;font style=&quot;font-size: 16px&quot;&gt;&lt;b&gt;P2&lt;/b&gt;&lt;/font&gt;" style="text;html=1;align=center;verticalAlign=middle;resizable=0;points=[];autosize=1;strokeColor=none;fillColor=none;" vertex="1" parent="1">
          <mxGeometry x="339" y="306" width="40" height="20" as="geometry" />
        </mxCell>
        <mxCell id="ZViHw2USpMIrhBvI2TIL-8" value="" style="endArrow=classic;html=1;rounded=0;fontSize=16;strokeWidth=2;" edge="1" parent="1">
          <mxGeometry relative="1" as="geometry">
            <mxPoint x="420" y="173" as="sourcePoint" />
            <mxPoint x="440" y="243" as="targetPoint" />
          </mxGeometry>
        </mxCell>
        <mxCell id="ZViHw2USpMIrhBvI2TIL-10" value="a" style="text;html=1;align=center;verticalAlign=middle;resizable=0;points=[];autosize=1;strokeColor=none;fillColor=none;fontSize=16;" vertex="1" parent="1">
          <mxGeometry x="410" y="150" width="20" height="20" as="geometry" />
        </mxCell>
        <mxCell id="ZViHw2USpMIrhBvI2TIL-11" value="b" style="text;html=1;align=center;verticalAlign=middle;resizable=0;points=[];autosize=1;strokeColor=none;fillColor=none;fontSize=16;" vertex="1" parent="1">
          <mxGeometry x="430" y="250" width="20" height="20" as="geometry" />
        </mxCell>
        <mxCell id="ZViHw2USpMIrhBvI2TIL-12" value="c" style="text;html=1;align=center;verticalAlign=middle;resizable=0;points=[];autosize=1;strokeColor=none;fillColor=none;fontSize=16;" vertex="1" parent="1">
          <mxGeometry x="480" y="150" width="20" height="20" as="geometry" />
        </mxCell>
        <mxCell id="ZViHw2USpMIrhBvI2TIL-13" value="" style="endArrow=classic;html=1;rounded=0;fontSize=16;strokeWidth=2;" edge="1" parent="1">
          <mxGeometry relative="1" as="geometry">
            <mxPoint x="490" y="170" as="sourcePoint" />
            <mxPoint x="680" y="310" as="targetPoint" />
          </mxGeometry>
        </mxCell>
        <mxCell id="ZViHw2USpMIrhBvI2TIL-14" value="d" style="text;html=1;align=center;verticalAlign=middle;resizable=0;points=[];autosize=1;strokeColor=none;fillColor=none;fontSize=16;" vertex="1" parent="1">
          <mxGeometry x="670" y="320" width="20" height="20" as="geometry" />
        </mxCell>
        <mxCell id="ZViHw2USpMIrhBvI2TIL-16" value="" style="endArrow=classic;html=1;rounded=0;fontSize=16;strokeWidth=2;" edge="1" parent="1">
          <mxGeometry relative="1" as="geometry">
            <mxPoint x="630" y="250" as="sourcePoint" />
            <mxPoint x="650" y="320" as="targetPoint" />
          </mxGeometry>
        </mxCell>
        <mxCell id="ZViHw2USpMIrhBvI2TIL-17" value="f" style="text;html=1;align=center;verticalAlign=middle;resizable=0;points=[];autosize=1;strokeColor=none;fillColor=none;fontSize=16;" vertex="1" parent="1">
          <mxGeometry x="640" y="320" width="20" height="20" as="geometry" />
        </mxCell>
      </root>
    </mxGraphModel>
  </diagram>
</mxfile>
